<?xml version="1.0" encoding="utf-8"?>
<!-- Generator: Adobe Illustrator 15.0.2, SVG Export Plug-In . SVG Version: 6.00 Build 0)  -->
<!DOCTYPE svg PUBLIC "-//W3C//DTD SVG 1.1//EN" "http://www.w3.org/Graphics/SVG/1.1/DTD/svg11.dtd">
<svg version="1.1" xmlns="http://www.w3.org/2000/svg" xmlns:xlink="http://www.w3.org/1999/xlink" x="0px" y="0px" width="400px"
	 height="400px" viewBox="0 0 400 400" enable-background="new 0 0 400 400" xml:space="preserve">
<g id="Stencil" display="none">
</g>
<g id="Horn" display="none">
	<path d="M-341,172.75c-0.741-10.226,2.379-16.595,2.5-26c0.061-4.714-0.161-9.415-0.487-13.853
		c-9.166-0.898-24.423-3.037-36.013-7.897c-31-13-21.972-64.5-21.972-64.5S-411.5,70-420,95.5c-5.196,15.589-9,50,6.5,65.5
		c24.481,24.481,67.383,34.508,79.328,36.904C-335.659,189.373-339.8,189.316-341,172.75z"/>
	<path d="M-170.545,172.75c0.741-10.226-2.379-16.595-2.5-26c-0.061-4.714,0.161-9.415,0.487-13.853
		c9.166-0.898,24.423-3.037,36.013-7.897c31-13,21.972-64.5,21.972-64.5s14.528,9.5,23.028,35c5.196,15.589,9,50-6.5,65.5
		c-24.481,24.481-67.383,34.508-79.328,36.904C-175.886,189.373-171.745,189.316-170.545,172.75z"/>
</g>
<g id="Shield" display="none">
</g>
<g id="Logo_Small" display="none">
	<g display="inline">
		<g>
			<polygon fill="#E7E7E7" points="-256,-0.643 -438,62.357 -410,307.357 -256,392.357 			"/>
			<polygon fill="#E7E7E7" points="-256,-0.643 -74,62.357 -102,307.357 -256,392.357 			"/>
		</g>
		<linearGradient id="SVGID_1_" gradientUnits="userSpaceOnUse" x1="-377.7012" y1="36.5337" x2="-131.4003" y2="310.0785">
			<stop  offset="0" style="stop-color:#F15A24"/>
			<stop  offset="1" style="stop-color:#F7931E"/>
		</linearGradient>
		<path fill="url(#SVGID_1_)" d="M-256,373.643l-139.25-76.905L-420.5,75.071l164.5-57V373.643z M-256,373.643l139.417-76.905
			l25.417-221.666l-164.834-57"/>
		<g>
			<path fill="#FFFFFF" d="M-319.234,169.439c-0.551-7.597,1.768-12.328,1.857-19.315c0.045-3.503-0.12-6.995-0.362-10.292
				c-6.81-0.667-12.628,7.399-28.217,0.077c-12.653-5.943-19.348-12.331-20.082-29.717c-0.558-13.187,10.681-22.729,21.916-29.346
				c9.038-5.324,15.759-4.374,16.093-6.191c0.379-2.048-27.297-7.352-48.146,8.455c-18.943,14.362-27.71,53.027-1.627,83.42
				c15.725,18.322,56.725,20.209,63.641,21.597C-315.268,181.789-318.344,181.747-319.234,169.439z"/>
			<path fill="#FFFFFF" d="M-192.766,168.697c0.551-7.598-1.768-12.329-1.856-19.316c-0.045-3.502,0.119-6.994,0.362-10.292
				c6.809-0.666,12.627,7.399,28.216,0.077c12.654-5.943,19.348-12.331,20.083-29.717c0.558-13.187-10.683-22.728-21.916-29.345
				c-9.039-5.324-15.759-4.375-16.095-6.192c-0.377-2.048,27.298-7.352,48.146,8.455c18.945,14.362,27.71,53.027,1.628,83.42
				c-15.724,18.322-56.725,20.21-63.641,21.598C-196.733,181.047-193.656,181.004-192.766,168.697z"/>
			<path fill="#FFFFFF" d="M-256,328.609c0,0,46.003,0.194,46.373-10.393c0.591-16.836,1.214-18.986,3.489-47.74
				c1.647-20.831,3.333-68.523,5.2-82.279c0.974-7.173,4.271-6.686,5.2-19.5c0.552-7.598-1.768-12.329-1.856-19.316
				c-0.187-14.487,3.204-28.826,0.923-29.722c-5.195-2.038-59.329-0.833-59.329-0.833s-54.134-1.205-59.329,0.833
				c-2.28,0.896,1.109,15.234,0.923,29.722c-0.089,6.987-2.407,11.719-1.857,19.316c0.93,12.814,4.227,12.327,5.201,19.5
				c1.867,13.756,3.551,61.448,5.201,82.279c2.275,28.754,2.897,30.904,3.488,47.74C-302.002,328.804-256,328.609-256,328.609z"/>
		</g>
		<polygon opacity="0.1" fill="#0C0C0C" points="-256,-0.643 -74,62.357 -102,307.357 -256,392.357 		"/>
	</g>
</g>
<g id="Layer_5">
	<g>
		<g>
			<polygon fill="#E7E7E7" points="200,13.357 63,60.78 84.077,245.204 200,309.187 			"/>
			<polygon fill="#E7E7E7" points="200,13.357 337,60.78 315.923,245.204 200,309.187 			"/>
		</g>
		<linearGradient id="SVGID_2_" gradientUnits="userSpaceOnUse" x1="108.3906" y1="41.3428" x2="293.7921" y2="247.252">
			<stop  offset="0" style="stop-color:#F15A24"/>
			<stop  offset="1" style="stop-color:#F7931E"/>
		</linearGradient>
		<path fill="url(#SVGID_2_)" d="M200,295.1L95.18,237.209L76.173,70.351L200,27.444V295.1z M200,295.1l104.945-57.891
			l19.133-166.858L200,27.444"/>
		<g>
			<path fill="#FFFFFF" d="M152.4,141.386c-0.414-5.719,1.33-9.28,1.398-14.54c0.034-2.637-0.091-5.265-0.273-7.747
				c-5.125-0.502-9.505,5.57-21.239,0.058c-9.524-4.474-14.564-9.282-15.117-22.369c-0.42-9.926,8.04-17.109,16.497-22.09
				c6.804-4.008,11.862-3.292,12.114-4.661c0.285-1.542-20.548-5.534-36.242,6.365c-14.26,10.811-20.858,39.916-1.225,62.794
				c11.837,13.792,42.699,15.212,47.905,16.257C155.387,150.682,153.071,150.65,152.4,141.386z"/>
			<path fill="#FFFFFF" d="M247.6,140.827c0.414-5.719-1.33-9.28-1.397-14.541c-0.034-2.636,0.09-5.264,0.273-7.747
				c5.125-0.501,9.504,5.569,21.238,0.058c9.525-4.474,14.564-9.282,15.118-22.37c0.42-9.926-8.042-17.108-16.497-22.089
				c-6.805-4.007-11.862-3.293-12.115-4.661c-0.284-1.542,20.548-5.534,36.242,6.365c14.26,10.811,20.858,39.916,1.225,62.794
				c-11.836,13.792-42.699,15.213-47.905,16.258C244.613,150.124,246.929,150.091,247.6,140.827z"/>
			<path fill="#FFFFFF" d="M200,261.201c0,0,34.629,0.146,34.907-7.823c0.444-12.674,0.913-14.292,2.626-35.937
				c1.241-15.681,2.509-51.581,3.915-61.936c0.732-5.399,3.216-5.033,3.914-14.679c0.415-5.719-1.33-9.28-1.397-14.541
				c-0.14-10.905,2.412-21.698,0.695-22.373c-3.911-1.534-44.66-0.627-44.66-0.627s-40.749-0.907-44.66,0.627
				c-1.716,0.674,0.835,11.468,0.695,22.373c-0.067,5.26-1.812,8.822-1.398,14.541c0.699,9.646,3.182,9.28,3.915,14.679
				c1.406,10.354,2.673,46.255,3.915,61.936c1.713,21.645,2.182,23.263,2.626,35.937C165.372,261.348,200,261.201,200,261.201z"/>
		</g>
		<polygon opacity="0.1" fill="#0C0C0C" points="200,13.357 337,60.78 315.923,245.204 200,309.187 		"/>
	</g>
	<g>
		<path fill="#FFFFFF" d="M97.922,329.459v8.329c0,1.152-0.145,2.098-0.432,2.838c1.439,1.811,2.16,3.743,2.16,5.8v9.193
			c0,2.509-0.895,4.658-2.684,6.447c-1.791,1.789-3.961,2.684-6.51,2.684H55.229v-44.422h33.562c2.508,0,4.658,0.895,6.447,2.684
			S97.922,326.95,97.922,329.459z M64.791,329.952v7.404h23.445v-7.404H64.791z M64.791,346.981v8.144h25.172v-8.144H64.791z"/>
		<path fill="#FFFFFF" d="M147.525,320.328v9.624h-31.342v7.774h25.234v9.625h-25.234v7.773h31.342v9.625h-41.029v-44.422H147.525z"
			/>
		<path fill="#FFFFFF" d="M194.785,320.328v9.624h-31.342v7.774h25.234v9.625h-25.234v7.773h31.342v9.625h-41.029v-44.422H194.785z"
			/>
		<path fill="#FFFFFF" d="M245.254,329.521v11.476c0,2.51-0.906,4.658-2.715,6.448c-1.811,1.789-3.971,2.684-6.479,2.684h-0.432
			l9.625,11.353v3.27h-9.871l-12.279-14.622l-12.709,0.062c0.123,0,0.186,0.123,0.186,0.37c-0.084,0-0.145-0.021-0.186-0.062v14.252
			h-9.562v-44.36h35.229c2.508,0,4.668,0.895,6.479,2.684C244.348,324.862,245.254,327.013,245.254,329.521z M210.395,329.952
			v10.551h25.172v-10.551H210.395z"/>
		<path fill="#FFFFFF" d="M260.801,320.328h26.16c2.508,0,4.658,0.895,6.447,2.684s2.684,3.938,2.684,6.447v26.16
			c0,2.509-0.895,4.658-2.684,6.447s-3.939,2.684-6.447,2.684h-26.16c-2.551,0-4.709-0.884-6.479-2.653
			c-1.768-1.768-2.652-3.927-2.652-6.478v-26.16c0-2.55,0.885-4.709,2.652-6.479C256.092,321.213,258.25,320.328,260.801,320.328z
			 M261.232,329.952v25.173h25.174v-25.173H261.232z"/>
		<path fill="#FFFFFF" d="M334.838,320.328h9.934v3.27l-15.918,18.941l15.918,18.879v3.332h-9.934l-12.34-14.561l-12.215,14.561
			h-9.934v-3.27l15.855-18.941l-15.855-18.941v-3.27h9.934l12.34,14.622c1.191-1.521,3.248-4,6.168-7.435
			C331.711,324.082,333.729,321.686,334.838,320.328z"/>
	</g>
	<text transform="matrix(1 0 0 1 51.0332 474.7188)"><tspan x="0" y="0" font-family="'Orbitron-Black'" font-size="61.6975">BEEROX</tspan><tspan x="6.604" y="74.037" font-family="'Orbitron-Black'" font-size="61.6975">Orbitron</tspan></text>
	<g>
		<g>
			<polygon fill="#E7E7E7" points="701,13.357 563.943,60.78 585.049,245.203 701,309.187 			"/>
			<polygon fill="#E7E7E7" points="701,13.357 837.943,60.78 816.895,245.203 701,309.187 			"/>
		</g>
		<linearGradient id="SVGID_3_" gradientUnits="userSpaceOnUse" x1="609.3301" y1="41.3701" x2="794.6936" y2="247.2372">
			<stop  offset="0" style="stop-color:#006B11"/>
			<stop  offset="1" style="stop-color:#50D000"/>
		</linearGradient>
		<path fill="url(#SVGID_3_)" d="M701,295.099l-104.876-57.891L577.146,70.35L701,27.444V295.099z M700.887,295.099l104.945-57.891
			L824.965,70.35L700.887,27.444"/>
		<g>
			<path fill="#FFFFFF" d="M653.287,141.385c-0.414-5.718,1.331-9.28,1.398-14.54c0.034-2.637-0.09-5.266-0.272-7.747
				c-5.126-0.502-9.506,5.57-21.24,0.058c-9.524-4.474-14.563-9.282-15.116-22.369c-0.42-9.926,8.039-17.109,16.497-22.09
				c6.803-4.008,11.862-3.292,12.113-4.661c0.285-1.542-20.548-5.534-36.242,6.364c-14.26,10.812-20.858,39.917-1.225,62.794
				c11.837,13.792,42.699,15.212,47.905,16.256C656.273,150.682,653.958,150.65,653.287,141.385z"/>
			<path fill="#FFFFFF" d="M748.486,140.827c0.415-5.719-1.33-9.281-1.397-14.54c-0.034-2.636,0.09-5.265,0.272-7.748
				c5.125-0.501,9.505,5.57,21.239,0.058c9.526-4.474,14.564-9.282,15.118-22.369c0.419-9.926-8.042-17.108-16.498-22.089
				c-6.804-4.007-11.862-3.293-12.115-4.661c-0.283-1.542,20.549-5.534,36.242,6.365c14.262,10.811,20.859,39.916,1.226,62.794
				c-11.836,13.792-42.699,15.213-47.905,16.257C745.5,150.123,747.816,150.09,748.486,140.827z"/>
			<path fill="#FFFFFF" d="M700.887,261.2c0,0,34.629,0.146,34.907-7.823c0.444-12.673,0.914-14.292,2.627-35.937
				c1.24-15.68,2.509-51.58,3.914-61.936c0.733-5.399,3.216-5.032,3.914-14.678c0.416-5.719-1.33-9.281-1.397-14.54
				c-0.14-10.905,2.412-21.699,0.695-22.373c-3.911-1.534-44.66-0.627-44.66-0.627s-40.749-0.907-44.659,0.627
				c-1.717,0.674,0.835,11.468,0.694,22.373c-0.067,5.259-1.812,8.821-1.398,14.54c0.7,9.646,3.182,9.279,3.915,14.678
				c1.406,10.355,2.673,46.256,3.915,61.936c1.713,21.645,2.182,23.264,2.626,35.937C666.259,261.347,700.887,261.2,700.887,261.2z"
				/>
		</g>
		<polygon opacity="0.1" fill="#0C0C0C" points="701,13.357 837.943,60.78 816.895,245.203 701,309.187 		"/>
	</g>
	<g>
		<path d="M598.977,329.49v8.329c0,1.152-0.145,2.098-0.432,2.838c1.439,1.811,2.16,3.743,2.16,5.8v9.193
			c0,2.509-0.895,4.658-2.684,6.447c-1.791,1.789-3.961,2.684-6.51,2.684h-35.229v-44.422h33.562c2.508,0,4.658,0.895,6.447,2.684
			S598.977,326.981,598.977,329.49z M565.846,329.983v7.404h23.445v-7.404H565.846z M565.846,347.013v8.144h25.172v-8.144H565.846z"
			/>
		<path d="M648.58,320.359v9.624h-31.342v7.774h25.234v9.625h-25.234v7.773h31.342v9.625h-41.029v-44.422H648.58z"/>
		<path d="M695.84,320.359v9.624h-31.342v7.774h25.234v9.625h-25.234v7.773h31.342v9.625h-41.029v-44.422H695.84z"/>
		<path d="M746.309,329.552v11.476c0,2.51-0.906,4.658-2.715,6.448c-1.811,1.789-3.971,2.684-6.479,2.684h-0.432l9.625,11.353v3.27
			h-9.871l-12.279-14.622l-12.709,0.062c0.123,0,0.186,0.123,0.186,0.37c-0.084,0-0.145-0.021-0.186-0.062v14.252h-9.562v-44.36
			h35.229c2.508,0,4.668,0.895,6.479,2.684C745.402,324.894,746.309,327.044,746.309,329.552z M711.449,329.983v10.551h25.172
			v-10.551H711.449z"/>
		<path d="M761.855,320.359h26.16c2.508,0,4.658,0.895,6.447,2.684s2.684,3.938,2.684,6.447v26.16c0,2.509-0.895,4.658-2.684,6.447
			s-3.939,2.684-6.447,2.684h-26.16c-2.551,0-4.709-0.884-6.479-2.653c-1.768-1.768-2.652-3.927-2.652-6.478v-26.16
			c0-2.55,0.885-4.709,2.652-6.479C757.146,321.244,759.305,320.359,761.855,320.359z M762.287,329.983v25.173h25.174v-25.173
			H762.287z"/>
		<path d="M835.893,320.359h9.934v3.27l-15.918,18.941l15.918,18.879v3.332h-9.934l-12.34-14.561l-12.215,14.561h-9.934v-3.27
			l15.855-18.941l-15.855-18.941v-3.27h9.934l12.34,14.622c1.191-1.521,3.248-4,6.168-7.435
			C832.766,324.113,834.783,321.717,835.893,320.359z"/>
	</g>
</g>
</svg>
